<?xml version="1.0" encoding="UTF-8" ?>
<!DOCTYPE svg PUBLIC "-//W3C//DTD SVG 1.1//EN" "http://www.w3.org/Graphics/SVG/1.1/DTD/svg11.dtd">
<svg width="1024pt" height="1024pt" viewBox="0 0 1024 1024" version="1.1" xmlns="http://www.w3.org/2000/svg">
<g id="#ffffe3ff">
<path fill="#ffffe3" opacity="1.00" d=" M 811.50 228.31 L 812.21 228.12 C 812.58 258.43 812.19 288.76 812.38 319.08 C 812.39 321.03 812.44 323.02 811.89 324.92 L 811.01 324.86 C 811.00 293.24 811.00 261.62 811.00 230.00 C 798.01 230.03 785.01 229.94 772.02 230.02 C 769.92 230.03 767.85 229.83 765.80 229.46 C 767.84 229.15 769.91 228.96 772.00 228.98 C 783.66 229.05 795.31 228.95 806.97 229.03 C 808.50 229.09 810.03 228.80 811.50 228.31 Z" />
<path fill="#ffffe3" opacity="1.00" d=" M 719.57 756.52 C 735.10 756.19 750.65 756.35 766.20 756.43 L 766.47 756.95 C 751.14 757.07 735.81 756.97 720.48 756.99 C 720.68 771.98 720.47 786.96 720.64 801.95 C 720.75 802.45 720.98 803.46 721.09 803.97 C 593.07 804.11 465.06 804.00 337.04 804.02 C 325.46 804.27 313.84 803.53 302.29 804.42 C 302.21 804.14 302.04 803.57 301.96 803.29 C 366.64 802.94 431.33 803.31 496.02 803.13 C 570.51 803.09 644.99 803.27 719.48 803.12 C 719.61 787.59 719.06 772.05 719.57 756.52 Z" />
</g>
<g id="#fefefdff">
<path fill="#fefefd" opacity="1.00" d=" M 346.50 82.62 C 348.63 82.20 350.79 81.97 352.97 82.07 C 425.64 82.20 498.31 82.11 570.98 82.12 C 605.49 82.26 640.03 81.88 674.52 82.25 L 674.92 83.03 C 566.01 83.19 457.08 83.06 348.16 83.08 C 348.17 99.05 348.40 115.02 348.04 130.99 C 317.43 131.02 286.82 130.98 256.22 131.01 C 256.40 146.03 256.17 161.05 256.33 176.06 C 256.77 177.48 255.75 178.56 255.14 179.68 C 240.40 179.11 225.61 179.91 210.87 179.29 L 209.93 179.21 C 209.48 189.82 209.83 200.44 209.74 211.05 C 209.57 215.47 210.51 219.98 209.43 224.32 C 209.19 209.01 209.11 193.68 209.34 178.36 C 224.61 178.07 239.90 178.63 255.17 178.12 C 255.44 162.12 255.05 146.11 255.32 130.12 C 262.52 128.76 269.89 130.09 277.18 129.48 C 284.48 129.93 291.76 129.01 299.05 129.67 C 311.17 130.09 323.28 129.14 335.40 129.58 C 337.99 129.66 340.58 129.40 343.13 128.96 C 343.59 128.93 344.53 128.87 344.99 128.84 C 345.39 129.00 346.19 129.31 346.59 129.47 C 346.56 113.86 346.76 98.24 346.50 82.62 Z" />
<path fill="#fefefd" opacity="1.00" d=" M 812.65 226.18 C 828.44 226.54 844.25 225.93 860.04 226.51 C 844.19 227.28 828.29 226.35 812.43 226.92 L 812.65 226.18 Z" />
</g>
<g id="#fee373ff">
<path fill="#fee373" opacity="1.00" d=" M 346.24 128.26 C 346.62 113.05 346.08 97.83 346.50 82.62 C 346.76 98.24 346.56 113.86 346.59 129.47 C 346.19 129.31 345.39 129.00 344.99 128.84 C 344.53 128.87 343.59 128.93 343.13 128.96 C 344.16 128.74 345.20 128.50 346.24 128.26 Z" />
<path fill="#fee373" opacity="1.00" d=" M 673.69 181.12 C 699.25 180.93 724.82 181.00 750.38 181.08 C 745.32 182.32 740.11 181.51 734.98 181.66 C 723.41 181.81 711.82 181.48 700.27 182.07 C 692.51 181.45 684.72 181.67 676.96 181.96 C 675.75 182.09 674.66 181.81 673.69 181.12 Z" />
<path fill="#fee373" opacity="1.00" d=" M 766.40 613.08 C 781.27 612.50 796.18 613.31 811.06 612.67 C 811.20 644.12 810.70 675.58 811.23 707.02 C 796.32 707.14 781.38 706.68 766.48 707.34 L 766.17 708.03 L 765.96 708.61 C 765.42 709.98 764.95 711.41 765.02 712.93 C 765.06 723.96 764.88 735.01 765.12 746.05 C 765.16 749.21 764.98 752.45 765.98 755.52 L 766.20 756.43 C 750.65 756.35 735.10 756.19 719.57 756.52 C 719.06 772.05 719.61 787.59 719.48 803.12 C 644.99 803.27 570.51 803.09 496.02 803.13 C 431.33 803.31 366.64 802.94 301.96 803.29 C 302.01 787.84 302.02 772.39 301.97 756.95 C 301.96 756.62 301.96 755.97 301.95 755.64 C 287.28 756.70 272.53 755.23 257.85 756.24 C 258.15 742.14 257.94 728.04 258.00 713.95 C 257.89 712.05 258.24 709.86 256.68 708.43 L 256.65 708.25 C 256.84 706.30 254.15 707.35 253.04 706.99 C 239.33 707.11 225.62 706.92 211.91 707.13 C 212.04 675.72 211.99 644.31 211.91 612.90 C 226.61 612.92 241.31 612.75 256.02 612.93 C 257.00 629.09 255.24 645.30 256.54 661.44 C 267.95 661.50 279.37 661.57 290.79 661.58 C 294.54 661.64 298.36 661.01 302.05 661.90 C 302.02 677.44 302.11 692.98 302.06 708.53 C 312.83 708.44 323.60 708.48 334.38 708.41 C 338.97 708.34 343.58 708.77 348.15 708.14 C 347.51 721.10 348.58 734.10 348.07 747.07 C 348.29 750.17 347.26 753.53 348.51 756.46 C 353.27 757.47 358.19 756.86 363.02 757.00 C 466.85 757.00 570.67 757.02 674.49 756.96 C 673.54 747.45 674.72 737.91 674.36 728.38 C 674.53 721.64 673.82 714.90 674.22 708.17 C 686.15 708.60 698.09 708.57 710.02 708.27 C 713.36 708.17 716.76 708.99 720.07 708.18 C 719.95 701.89 719.90 695.60 720.21 689.32 C 720.05 680.03 719.60 670.72 720.07 661.44 C 735.57 661.95 751.09 661.06 766.58 661.84 C 766.47 654.41 766.69 646.97 766.41 639.54 L 766.87 639.35 L 766.20 638.72 L 766.97 638.12 L 766.36 637.93 C 766.80 629.66 766.31 621.36 766.40 613.08 Z" />
</g>
<g id="#000000ff">
<path fill="#000000" opacity="1.00" d=" M 348.16 83.08 C 457.08 83.06 566.01 83.19 674.92 83.03 L 675.12 83.41 C 674.81 99.27 675.13 115.13 674.95 130.99 C 705.57 131.00 736.19 131.02 766.81 130.98 C 766.40 147.09 766.60 163.23 766.73 179.35 C 782.12 179.62 797.53 179.49 812.92 179.40 C 812.53 194.75 812.67 210.13 812.86 225.48 L 812.65 226.18 L 812.43 226.92 L 812.97 227.81 C 827.31 227.86 841.65 227.87 856.00 227.83 C 857.27 227.96 858.92 227.49 859.84 228.69 C 859.49 228.77 858.77 228.94 858.42 229.03 L 858.48 229.93 C 858.83 257.93 858.52 285.94 858.65 313.94 C 858.65 317.61 858.73 321.45 857.20 324.88 C 842.31 324.57 827.37 324.52 812.48 324.86 L 811.89 324.92 C 812.44 323.02 812.39 321.03 812.38 319.08 C 812.19 288.76 812.58 258.43 812.21 228.12 L 811.50 228.31 C 796.45 228.17 781.40 228.38 766.35 228.21 C 766.65 215.49 766.41 202.76 766.48 190.04 C 766.58 186.65 766.03 183.18 767.00 179.88 C 736.03 179.98 705.07 179.99 674.10 179.87 C 674.39 163.59 674.46 147.27 674.10 130.99 C 565.73 131.01 457.36 130.99 348.99 131.00 C 349.02 147.33 348.99 163.65 349.01 179.98 C 319.30 179.87 289.59 180.04 259.89 179.89 C 258.08 179.26 255.69 180.81 256.48 182.92 C 256.61 198.00 256.15 213.10 256.73 228.16 C 241.63 228.37 226.52 228.28 211.42 228.22 L 210.92 228.18 L 210.77 228.79 C 209.88 231.76 210.25 234.91 210.20 237.97 C 210.31 266.93 209.94 295.89 210.21 324.85 C 194.80 324.65 179.39 324.91 163.98 324.73 C 163.99 420.81 163.98 516.89 163.99 612.97 L 164.66 612.86 C 179.85 612.99 195.04 612.89 210.23 612.92 C 209.66 640.27 210.53 667.64 210.12 694.99 C 210.08 699.66 209.88 704.34 210.41 708.99 C 194.94 709.01 179.47 709.01 164.00 709.00 C 164.04 693.33 163.93 677.66 164.06 661.99 C 119.36 662.00 74.66 662.01 29.95 661.99 C 29.98 613.74 30.03 565.49 29.94 517.25 C 59.30 517.40 88.65 517.14 118.00 517.36 C 117.98 501.19 117.97 485.03 117.99 468.87 C 118.01 452.70 118.00 436.53 118.00 420.36 C 118.01 388.36 117.88 356.37 118.05 324.37 C 133.37 324.62 148.69 324.17 164.01 324.59 C 163.99 295.40 164.01 266.22 163.99 237.03 C 163.94 233.90 164.27 230.73 163.60 227.64 C 179.35 228.15 195.12 227.65 210.89 227.90 C 210.93 211.70 210.94 195.50 210.87 179.29 C 225.61 179.91 240.40 179.11 255.14 179.68 C 255.75 178.56 256.77 177.48 256.33 176.06 C 256.17 161.05 256.40 146.03 256.22 131.01 C 286.82 130.98 317.43 131.02 348.04 130.99 C 348.40 115.02 348.17 99.05 348.16 83.08 M 73.80 564.91 L 74.14 565.34 C 73.76 581.25 74.14 597.18 73.95 613.10 L 74.60 612.79 C 88.71 613.15 102.84 612.90 116.96 612.91 C 117.28 612.73 117.93 612.35 118.25 612.17 L 117.88 611.42 C 118.18 595.96 117.88 580.49 117.98 565.02 C 103.25 564.92 88.52 565.07 73.80 564.91 Z" />
<path fill="#000000" opacity="1.00" d=" M 858.97 324.28 C 874.17 324.68 889.38 324.16 904.58 324.56 C 904.08 342.69 904.51 360.85 904.35 378.99 C 904.35 425.08 904.58 471.17 904.12 517.25 C 933.80 517.25 963.49 517.40 993.17 517.18 C 993.45 565.45 993.10 613.73 993.36 662.00 C 948.44 661.99 903.52 662.01 858.60 661.99 C 858.99 677.64 858.68 693.31 858.72 708.97 C 843.43 709.04 828.14 708.99 812.85 708.99 C 812.55 724.94 812.73 740.90 812.79 756.85 C 797.55 757.18 782.31 756.91 767.07 757.00 C 766.88 740.89 767.13 724.79 766.94 708.69 C 775.93 708.88 784.93 708.79 793.93 708.83 C 799.42 708.75 804.94 709.16 810.39 708.26 C 811.03 708.21 812.32 708.12 812.96 708.07 C 811.92 704.80 812.36 701.34 812.31 697.97 C 812.32 675.65 812.35 653.33 812.33 631.02 C 812.18 624.90 812.66 618.76 812.09 612.66 C 827.40 613.36 842.78 612.83 858.12 612.95 L 858.94 612.76 C 859.02 596.96 859.04 581.15 858.92 565.34 C 859.02 517.08 858.95 468.81 858.92 420.54 C 859.05 391.72 858.94 362.89 858.98 334.07 C 859.03 331.04 859.12 328.00 858.77 324.99 L 858.97 324.28 M 903.99 565.03 C 904.27 579.01 904.04 593.00 904.13 606.99 C 904.38 609.05 903.20 611.78 904.92 613.39 L 905.95 612.79 C 920.94 613.12 935.95 612.88 950.94 612.92 C 950.72 596.97 950.91 581.01 950.89 565.05 C 935.90 564.94 920.90 564.97 905.90 565.03 L 904.86 564.93 L 903.99 565.03 Z" />
<path fill="#000000" opacity="1.00" d=" M 348.29 420.19 C 352.20 420.57 356.13 420.29 360.05 420.38 C 387.35 420.33 414.66 420.44 441.97 420.33 C 441.82 452.64 442.01 484.96 441.87 517.27 C 427.27 516.68 412.61 517.18 397.99 517.04 C 381.33 517.06 364.67 516.91 348.01 517.10 L 348.18 516.42 C 348.54 514.96 348.85 513.48 348.86 511.98 C 348.47 488.67 348.93 465.36 348.70 442.04 C 348.69 435.23 349.32 428.35 348.21 421.59 L 348.25 420.88 L 348.29 420.19 Z" />
<path fill="#000000" opacity="1.00" d=" M 581.06 420.34 C 612.37 420.39 643.68 420.47 674.99 420.29 C 674.97 452.63 675.07 484.97 674.92 517.31 C 660.98 516.63 646.96 517.20 632.99 517.03 C 615.61 517.15 598.21 516.74 580.85 517.25 C 581.27 484.96 580.89 452.64 581.06 420.34 Z" />
<path fill="#000000" opacity="1.00" d=" M 441.84 660.05 C 459.88 660.50 477.94 660.09 495.99 660.22 C 524.31 660.15 552.64 660.34 580.97 660.18 C 581.04 676.45 580.97 692.72 581.00 709.00 C 534.34 709.02 487.69 708.96 441.04 709.03 L 441.38 708.18 C 442.15 705.86 441.88 703.38 441.92 700.99 C 441.90 687.34 441.88 673.70 441.84 660.05 Z" />
<path fill="#000000" opacity="1.00" d=" M 256.49 708.29 L 256.65 708.25 L 256.68 708.43 C 255.96 724.41 256.95 740.46 256.13 756.44 C 258.65 757.36 261.37 756.97 264.00 757.00 C 276.65 756.95 289.31 757.06 301.97 756.95 C 302.02 772.39 302.01 787.84 301.96 803.29 C 302.04 803.57 302.21 804.14 302.29 804.42 C 303.48 804.83 304.71 805.02 305.98 805.01 C 442.98 804.87 579.99 805.00 716.99 804.93 C 718.31 804.94 719.65 804.99 720.99 805.10 C 721.01 820.08 720.99 835.06 721.00 850.05 C 721.19 851.43 720.29 852.52 719.66 853.67 C 580.46 853.56 441.25 853.60 302.04 853.64 C 301.96 837.48 302.02 821.33 302.02 805.17 C 286.77 805.64 271.47 805.46 256.21 805.27 C 256.76 789.40 255.86 773.49 256.69 757.63 C 254.28 756.52 251.58 757.06 249.02 756.99 C 236.26 757.01 223.49 756.99 210.73 757.00 C 211.03 741.00 210.87 724.99 210.82 708.99 C 224.55 708.97 238.28 709.05 252.01 709.03 C 253.53 709.02 255.02 708.66 256.49 708.29 Z" />
<path fill="#000000" opacity="1.00" d=" M 720.48 756.99 C 735.81 756.97 751.14 757.07 766.47 756.95 C 766.37 773.09 766.71 789.24 766.29 805.37 C 751.67 805.37 737.01 805.63 722.40 805.24 L 721.70 804.30 L 721.09 803.97 C 720.98 803.46 720.75 802.45 720.64 801.95 C 720.47 786.96 720.68 771.98 720.48 756.99 Z" />
</g>
<g id="#fefefbff">
<path fill="#fefefb" opacity="1.00" d=" M 675.12 83.41 C 675.44 83.69 676.08 84.24 676.39 84.52 C 676.00 96.54 676.12 108.57 676.43 120.59 C 676.67 123.69 676.18 126.79 675.94 129.88 C 685.27 128.79 694.64 129.87 703.99 129.39 C 717.78 129.54 731.56 129.63 745.35 129.47 C 752.65 129.80 759.99 129.00 767.27 129.80 C 768.18 132.76 767.62 135.93 767.72 138.97 C 767.74 152.03 767.64 165.09 767.74 178.14 C 783.07 178.43 798.41 178.13 813.74 178.27 C 813.93 190.85 814.07 203.44 813.88 216.03 C 813.79 219.20 814.38 222.55 812.86 225.48 C 812.67 210.13 812.53 194.75 812.92 179.40 C 797.53 179.49 782.12 179.62 766.73 179.35 C 766.60 163.23 766.40 147.09 766.81 130.98 C 736.19 131.02 705.57 131.00 674.95 130.99 C 675.13 115.13 674.81 99.27 675.12 83.41 Z" />
</g>
<g id="#fefef0ff">
<path fill="#fefef0" opacity="1.00" d=" M 348.99 131.00 C 457.36 130.99 565.73 131.01 674.10 130.99 C 674.46 147.27 674.39 163.59 674.10 179.87 C 705.07 179.99 736.03 179.98 767.00 179.88 C 766.03 183.18 766.58 186.65 766.48 190.04 C 766.41 202.76 766.65 215.49 766.35 228.21 L 765.26 227.74 C 764.81 212.17 765.09 196.57 765.11 180.99 C 760.20 181.04 755.28 180.90 750.38 181.08 C 724.82 181.00 699.25 180.93 673.69 181.12 C 673.24 179.44 672.97 177.72 672.99 175.98 C 672.99 161.38 673.14 146.77 672.93 132.17 C 591.96 131.71 510.98 132.12 430.00 131.97 C 403.38 132.17 376.74 131.71 350.13 132.18 C 349.71 148.34 350.69 164.54 349.68 180.69 C 346.14 181.00 342.59 181.05 339.04 181.00 C 311.99 181.00 284.94 181.00 257.89 181.00 C 257.74 196.64 258.07 212.29 257.69 227.92 L 256.73 228.16 C 256.15 213.10 256.61 198.00 256.48 182.92 C 255.69 180.81 258.08 179.26 259.89 179.89 C 289.59 180.04 319.30 179.87 349.01 179.98 C 348.99 163.65 349.02 147.33 348.99 131.00 Z" />
</g>
<g id="#ffef96ff">
<path fill="#ffef96" opacity="1.00" d=" M 350.13 132.18 C 376.74 131.71 403.38 132.17 430.00 131.97 C 510.98 132.12 591.96 131.71 672.93 132.17 C 673.14 146.77 672.99 161.38 672.99 175.98 C 672.97 177.72 673.24 179.44 673.69 181.12 C 674.66 181.81 675.75 182.09 676.96 181.96 C 684.72 181.67 692.51 181.45 700.27 182.07 C 711.82 181.48 723.41 181.81 734.98 181.66 C 740.11 181.51 745.32 182.32 750.38 181.08 C 755.28 180.90 760.20 181.04 765.11 180.99 C 765.09 196.57 764.81 212.17 765.26 227.74 L 766.35 228.21 C 781.40 228.38 796.45 228.17 811.50 228.31 C 810.03 228.80 808.50 229.09 806.97 229.03 C 795.31 228.95 783.66 229.05 772.00 228.98 C 769.91 228.96 767.84 229.15 765.80 229.46 C 767.85 229.83 769.92 230.03 772.02 230.02 C 785.01 229.94 798.01 230.03 811.00 230.00 C 811.00 261.62 811.00 293.24 811.01 324.86 C 796.28 324.47 781.54 324.61 766.82 324.73 C 766.32 328.37 766.26 332.04 766.41 335.71 C 766.92 363.85 766.38 392.01 766.74 420.16 C 796.43 420.67 826.14 420.33 855.84 420.28 C 856.16 420.49 856.80 420.91 857.12 421.12 C 856.92 469.00 856.95 516.89 857.10 564.77 C 842.04 564.79 826.98 564.96 811.93 564.88 C 812.48 580.21 812.46 595.56 812.06 610.90 C 827.10 611.12 842.15 610.95 857.20 611.00 L 857.18 612.09 C 842.16 612.72 827.08 611.72 812.09 612.66 L 811.06 612.67 C 796.18 613.31 781.27 612.50 766.40 613.08 C 766.31 621.36 766.80 629.66 766.36 637.93 L 766.97 638.12 L 766.20 638.72 L 766.87 639.35 L 766.41 639.54 C 766.69 646.97 766.47 654.41 766.58 661.84 C 751.09 661.06 735.57 661.95 720.07 661.44 C 719.60 670.72 720.05 680.03 720.21 689.32 C 719.90 695.60 719.95 701.89 720.07 708.18 C 716.76 708.99 713.36 708.17 710.02 708.27 C 698.09 708.57 686.15 708.60 674.22 708.17 C 673.82 714.90 674.53 721.64 674.36 728.38 C 674.72 737.91 673.54 747.45 674.49 756.96 C 570.67 757.02 466.85 757.00 363.02 757.00 C 358.19 756.86 353.27 757.47 348.51 756.46 C 347.26 753.53 348.29 750.17 348.07 747.07 C 348.58 734.10 347.51 721.10 348.15 708.14 C 343.58 708.77 338.97 708.34 334.38 708.41 C 323.60 708.48 312.83 708.44 302.06 708.53 C 302.11 692.98 302.02 677.44 302.05 661.90 C 298.36 661.01 294.54 661.64 290.79 661.58 C 279.37 661.57 267.95 661.50 256.54 661.44 C 255.24 645.30 257.00 629.09 256.02 612.93 C 241.31 612.75 226.61 612.92 211.91 612.90 L 210.98 612.91 L 210.23 612.92 C 195.04 612.89 179.85 612.99 164.66 612.86 C 164.88 612.51 165.33 611.82 165.55 611.47 C 169.99 610.72 174.49 611.05 178.97 611.04 C 189.57 610.97 200.18 611.11 210.78 611.04 C 210.34 595.70 210.77 580.35 210.62 565.00 C 195.42 564.37 180.19 564.99 164.98 564.85 C 165.01 485.22 165.02 405.58 164.98 325.95 C 180.42 325.98 195.87 325.82 211.31 326.00 C 211.28 326.36 211.23 327.08 211.20 327.44 C 210.73 342.95 211.14 358.47 210.99 373.98 L 212.03 373.99 C 242.38 374.01 272.72 374.00 303.07 373.99 C 303.33 349.68 302.92 325.37 303.12 301.06 C 303.32 293.29 303.03 285.51 303.03 277.74 C 296.69 277.25 290.34 277.73 284.00 277.63 C 259.98 277.55 235.96 277.69 211.94 277.24 C 212.01 261.44 211.89 245.64 211.98 229.84 C 226.79 229.89 241.64 230.19 256.44 229.71 C 254.08 228.76 251.48 229.10 249.00 229.05 C 238.65 229.19 228.30 228.90 217.96 229.10 C 215.76 229.10 213.43 229.32 211.42 228.22 C 226.52 228.28 241.63 228.37 256.73 228.16 L 257.69 227.92 C 258.07 212.29 257.74 196.64 257.89 181.00 C 284.94 181.00 311.99 181.00 339.04 181.00 C 342.59 181.05 346.14 181.00 349.68 180.69 C 350.69 164.54 349.71 148.34 350.13 132.18 M 347.73 419.13 L 348.29 420.19 L 348.25 420.88 L 347.03 420.82 C 347.08 445.56 346.99 470.31 347.05 495.05 C 347.38 502.76 346.33 510.59 347.49 518.23 C 347.89 518.33 348.69 518.52 349.09 518.62 C 360.75 519.12 372.42 518.78 384.09 518.72 C 399.41 519.08 414.73 518.67 430.06 518.98 C 434.10 518.40 438.56 519.56 442.35 518.03 L 441.87 517.27 C 443.91 516.95 442.57 514.32 442.95 512.98 C 442.78 487.65 443.07 462.32 442.83 436.99 C 442.74 431.10 443.31 425.18 442.63 419.31 C 437.44 418.74 432.22 419.10 427.02 419.00 C 400.59 419.09 374.15 418.83 347.73 419.13 M 580.38 419.33 C 580.22 420.78 580.04 422.24 579.97 423.71 L 579.37 424.39 C 578.76 433.54 579.15 442.73 579.12 451.90 C 579.33 453.32 578.54 455.28 579.94 456.28 L 579.94 456.79 C 578.41 460.97 579.17 465.66 579.08 470.04 C 579.30 470.35 579.75 470.98 579.97 471.29 C 580.01 474.42 580.01 477.56 579.97 480.69 C 579.78 481.03 579.41 481.72 579.23 482.06 C 578.71 491.99 579.55 501.96 578.99 511.90 C 579.09 513.31 578.21 515.56 580.02 516.24 C 580.22 516.49 580.64 517.00 580.85 517.25 L 581.54 517.85 L 580.83 518.69 C 591.21 519.06 601.60 518.57 611.98 518.78 C 631.68 519.19 651.37 518.58 671.06 518.85 C 672.53 518.78 674.23 519.12 675.45 518.04 L 674.92 517.31 L 675.91 516.88 C 675.75 500.93 676.01 484.98 675.82 469.03 C 675.65 452.45 676.36 435.85 675.59 419.29 C 672.41 418.89 669.20 418.99 666.00 419.00 C 640.32 419.01 614.65 418.99 588.97 419.00 C 586.10 419.02 583.21 418.83 580.38 419.33 M 440.93 659.97 C 441.65 663.62 441.19 667.35 441.29 671.04 C 441.48 683.42 441.17 695.80 441.38 708.18 L 441.04 709.03 C 487.69 708.96 534.34 709.02 581.00 709.00 C 580.97 692.72 581.04 676.45 580.97 660.18 L 580.96 659.27 C 567.98 658.63 554.96 659.28 541.97 659.03 C 509.62 659.07 477.28 659.03 444.93 658.99 C 443.63 659.22 441.68 658.53 440.93 659.97 Z" />
</g>
<g id="#fffefeff">
<path fill="#fffefe" opacity="1.00" d=" M 163.12 226.27 C 174.76 226.31 186.39 226.29 198.03 226.29 C 201.42 226.31 204.83 225.92 208.20 226.51 C 196.80 227.03 185.38 226.65 173.97 226.87 C 170.52 227.06 166.85 226.13 163.60 227.64 C 163.48 227.30 163.24 226.62 163.12 226.27 Z" />
</g>
<g id="#fefdf3ff">
<path fill="#fefdf3" opacity="1.00" d=" M 210.92 228.18 L 211.42 228.22 C 213.43 229.32 215.76 229.10 217.96 229.10 C 228.30 228.90 238.65 229.19 249.00 229.05 C 251.48 229.10 254.08 228.76 256.44 229.71 C 241.64 230.19 226.79 229.89 211.98 229.84 C 211.89 245.64 212.01 261.44 211.94 277.24 C 212.05 291.81 211.94 306.39 212.01 320.97 C 212.03 322.67 211.62 324.33 211.31 326.00 C 195.87 325.82 180.42 325.98 164.98 325.95 C 165.02 405.58 165.01 485.22 164.98 564.85 C 164.70 578.92 165.03 592.99 164.75 607.07 C 164.68 608.57 164.89 610.09 165.55 611.47 C 165.33 611.82 164.88 612.51 164.66 612.86 L 163.99 612.97 C 163.98 516.89 163.99 420.81 163.98 324.73 C 179.39 324.91 194.80 324.65 210.21 324.85 L 211.00 324.87 C 210.84 292.84 211.03 260.81 210.77 228.79 L 210.92 228.18 Z" />
</g>
<g id="#6d5138ff">
<path fill="#6d5138" opacity="1.00" d=" M 210.20 237.97 C 210.25 234.91 209.88 231.76 210.77 228.79 C 211.03 260.81 210.84 292.84 211.00 324.87 L 210.21 324.85 C 209.94 295.89 210.31 266.93 210.20 237.97 Z" />
</g>
<g id="#fefdf7ff">
<path fill="#fefdf7" opacity="1.00" d=" M 811.89 324.92 L 812.48 324.86 C 827.71 325.10 842.95 324.81 858.18 325.05 C 857.84 356.73 858.11 388.41 858.06 420.09 L 857.11 420.13 C 857.11 401.29 857.09 382.45 857.08 363.60 C 857.13 351.04 857.26 338.48 857.06 325.93 C 843.35 326.02 829.63 325.94 815.92 325.96 C 814.46 326.08 813.14 325.55 811.89 324.92 Z" />
</g>
<g id="#ee8322ff">
<path fill="#ee8322" opacity="1.00" d=" M 858.48 229.93 C 859.21 261.36 858.32 292.84 858.97 324.28 L 858.77 324.99 L 858.18 325.05 C 842.95 324.81 827.71 325.10 812.48 324.86 C 827.37 324.52 842.31 324.57 857.20 324.88 C 858.73 321.45 858.65 317.61 858.65 313.94 C 858.52 285.94 858.83 257.93 858.48 229.93 Z" />
<path fill="#ee8322" opacity="1.00" d=" M 73.80 564.91 C 88.52 565.07 103.25 564.92 117.98 565.02 C 117.88 580.49 118.18 595.96 117.88 611.42 C 115.96 607.28 117.18 602.53 116.99 598.12 L 116.27 598.17 C 116.20 602.46 116.29 606.76 116.09 611.05 C 111.97 610.98 107.84 610.80 103.74 611.32 C 108.41 612.87 113.43 611.65 118.25 612.17 C 117.93 612.35 117.28 612.73 116.96 612.91 C 102.84 612.90 88.71 613.15 74.60 612.79 C 78.40 610.78 82.86 612.34 86.95 611.99 C 92.36 611.63 98.03 612.80 103.27 611.29 C 93.96 610.61 84.63 611.50 75.33 611.02 C 75.13 604.82 74.75 598.61 75.28 592.42 C 75.28 591.30 75.70 590.29 76.38 589.43 C 76.10 589.24 75.55 588.88 75.28 588.69 C 74.05 580.96 76.90 572.79 74.14 565.34 L 73.80 564.91 Z" />
</g>
<g id="#e9debbff">
<path fill="#e9debb" opacity="1.00" d=" M 860.29 231.77 C 860.87 235.49 860.73 239.26 860.74 243.01 C 860.80 269.38 860.48 295.76 860.90 322.13 C 875.79 322.58 890.71 322.11 905.61 322.34 L 905.76 322.90 C 890.55 322.50 875.33 322.80 860.12 322.91 C 860.35 292.53 860.16 262.15 860.29 231.77 Z" />
<path fill="#e9debb" opacity="1.00" d=" M 906.24 325.65 C 907.23 330.75 907.11 335.92 906.67 341.06 C 906.91 366.71 906.40 392.38 906.94 418.03 C 907.49 418.24 908.58 418.68 909.13 418.89 C 908.41 418.85 906.95 418.76 906.22 418.71 C 906.25 387.69 906.21 356.67 906.24 325.65 Z" />
</g>
<g id="#ffc1aaff">
<path fill="#ffc1aa" opacity="1.00" d=" M 211.94 277.24 C 235.96 277.69 259.98 277.55 284.00 277.63 C 290.34 277.73 296.69 277.25 303.03 277.74 C 303.03 285.51 303.32 293.29 303.12 301.06 C 302.92 325.37 303.33 349.68 303.07 373.99 C 272.72 374.00 242.38 374.01 212.03 373.99 C 211.86 359.99 212.01 346.00 211.97 332.00 C 211.98 330.44 211.55 328.94 211.20 327.44 C 211.23 327.08 211.28 326.36 211.31 326.00 C 211.62 324.33 212.03 322.67 212.01 320.97 C 211.94 306.39 212.05 291.81 211.94 277.24 Z" />
<path fill="#ffc1aa" opacity="1.00" d=" M 766.82 324.73 C 781.54 324.61 796.28 324.47 811.01 324.86 L 811.89 324.92 C 813.14 325.55 814.46 326.08 815.92 325.96 C 829.63 325.94 843.35 326.02 857.06 325.93 C 857.26 338.48 857.13 351.04 857.08 363.60 C 856.73 363.80 856.01 364.20 855.65 364.40 C 856.39 371.26 855.96 378.16 856.04 385.04 C 855.92 396.78 856.26 408.54 855.84 420.28 C 826.14 420.33 796.43 420.67 766.74 420.16 C 766.38 392.01 766.92 363.85 766.41 335.71 C 766.26 332.04 766.32 328.37 766.82 324.73 Z" />
</g>
<g id="#d38773ff">
<path fill="#d38773" opacity="1.00" d=" M 858.18 325.05 L 858.77 324.99 C 859.12 328.00 859.03 331.04 858.98 334.07 C 858.94 362.89 859.05 391.72 858.92 420.54 L 858.07 421.34 L 858.06 420.09 C 858.11 388.41 857.84 356.73 858.18 325.05 Z" />
</g>
<g id="#fea6afff">
<path fill="#fea6af" opacity="1.00" d=" M 211.20 327.44 C 211.55 328.94 211.98 330.44 211.97 332.00 C 212.01 346.00 211.86 359.99 212.03 373.99 L 210.99 373.98 C 211.14 358.47 210.73 342.95 211.20 327.44 Z" />
</g>
<g id="#f3a691ff">
<path fill="#f3a691" opacity="1.00" d=" M 855.65 364.40 C 856.01 364.20 856.73 363.80 857.08 363.60 C 857.09 382.45 857.11 401.29 857.11 420.13 L 857.12 421.12 C 856.80 420.91 856.16 420.49 855.84 420.28 C 856.26 408.54 855.92 396.78 856.04 385.04 C 855.96 378.16 856.39 371.26 855.65 364.40 Z" />
</g>
<g id="#fefeedff">
<path fill="#fefeed" opacity="1.00" d=" M 347.73 419.13 C 374.15 418.83 400.59 419.09 427.02 419.00 C 432.22 419.10 437.44 418.74 442.63 419.31 C 443.31 425.18 442.74 431.10 442.83 436.99 C 443.07 462.32 442.78 487.65 442.95 512.98 C 442.57 514.32 443.91 516.95 441.87 517.27 C 442.01 484.96 441.82 452.64 441.97 420.33 C 414.66 420.44 387.35 420.33 360.05 420.38 C 356.13 420.29 352.20 420.57 348.29 420.19 L 347.73 419.13 Z" />
</g>
<g id="#fefeecff">
<path fill="#fefeec" opacity="1.00" d=" M 580.38 419.33 C 583.21 418.83 586.10 419.02 588.97 419.00 C 614.65 418.99 640.32 419.01 666.00 419.00 C 669.20 418.99 672.41 418.89 675.59 419.29 C 676.36 435.85 675.65 452.45 675.82 469.03 C 676.01 484.98 675.75 500.93 675.91 516.88 L 674.92 517.31 C 675.07 484.97 674.97 452.63 674.99 420.29 C 643.68 420.47 612.37 420.39 581.06 420.34 C 580.89 452.64 581.27 484.96 580.85 517.25 C 580.64 517.00 580.22 516.49 580.02 516.24 C 579.95 504.39 580.05 492.54 579.97 480.69 C 580.01 477.56 580.01 474.42 579.97 471.29 C 580.00 466.45 580.04 461.62 579.94 456.79 L 579.94 456.28 C 580.07 445.42 579.97 434.56 579.97 423.71 C 580.04 422.24 580.22 420.78 580.38 419.33 Z" />
</g>
<g id="#e8debcff">
</g>
<g id="#e9debcff">
</g>
<g id="#ffffdbff">
<path fill="#ffffdb" opacity="1.00" d=" M 857.11 420.13 L 858.06 420.09 L 858.07 421.34 C 858.18 469.09 857.90 516.84 858.16 564.59 C 858.00 580.42 857.92 596.25 858.10 612.08 L 857.18 612.09 L 857.20 611.00 C 857.20 595.59 857.26 580.18 857.10 564.77 C 856.95 516.89 856.92 469.00 857.12 421.12 L 857.11 420.13 Z" />
</g>
<g id="#ddd0a7ff">
</g>
<g id="#fffeeeff">
<path fill="#fffeee" opacity="1.00" d=" M 347.03 420.82 L 348.25 420.88 L 348.21 421.59 C 347.88 453.19 347.99 484.81 348.18 516.42 L 348.01 517.10 L 347.49 518.23 C 346.33 510.59 347.38 502.76 347.05 495.05 C 346.99 470.31 347.08 445.56 347.03 420.82 Z" />
</g>
<g id="#cfb266ff">
<path fill="#cfb266" opacity="1.00" d=" M 858.07 421.34 L 858.92 420.54 C 858.95 468.81 859.02 517.08 858.92 565.34 L 858.16 564.59 C 857.90 516.84 858.18 469.09 858.07 421.34 Z" />
</g>
<g id="#33250eff">
<path fill="#33250e" opacity="1.00" d=" M 348.21 421.59 C 349.32 428.35 348.69 435.23 348.70 442.04 C 348.93 465.36 348.47 488.67 348.86 511.98 C 348.85 513.48 348.54 514.96 348.18 516.42 C 347.99 484.81 347.88 453.19 348.21 421.59 Z" />
</g>
<g id="#f8e17aff">
<path fill="#f8e17a" opacity="1.00" d=" M 579.37 424.39 L 579.97 423.71 C 579.97 434.56 580.07 445.42 579.94 456.28 C 578.54 455.28 579.33 453.32 579.12 451.90 C 579.15 442.73 578.76 433.54 579.37 424.39 Z" />
</g>
<g id="#ddcea2ff">
</g>
<g id="#d7c9a4ff">
<path fill="#d7c9a4" opacity="1.00" d=" M 906.09 438.51 C 907.58 443.29 907.20 448.58 906.19 453.43 C 905.79 448.46 905.94 443.48 906.09 438.51 Z" />
</g>
<g id="#ddcfa5ff">
</g>
<g id="#d3c7a1ff">
<path fill="#d3c7a1" opacity="1.00" d=" M 906.19 453.67 C 907.10 456.85 907.39 460.33 906.08 463.46 C 905.91 460.20 905.88 456.92 906.19 453.67 Z" />
</g>
<g id="#f6e17cff">
<path fill="#f6e17c" opacity="1.00" d=" M 579.08 470.04 C 579.17 465.66 578.41 460.97 579.94 456.79 C 580.04 461.62 580.00 466.45 579.97 471.29 C 579.75 470.98 579.30 470.35 579.08 470.04 Z" />
</g>
<g id="#fbe47dff">
<path fill="#fbe47d" opacity="1.00" d=" M 579.23 482.06 C 579.41 481.72 579.78 481.03 579.97 480.69 C 580.05 492.54 579.95 504.39 580.02 516.24 C 578.21 515.56 579.09 513.31 578.99 511.90 C 579.55 501.96 578.71 491.99 579.23 482.06 Z" />
</g>
<g id="#ecdc7aff">
<path fill="#ecdc7a" opacity="1.00" d=" M 348.01 517.10 C 364.67 516.91 381.33 517.06 397.99 517.04 C 412.61 517.18 427.27 516.68 441.87 517.27 L 442.35 518.03 C 412.56 517.44 382.76 518.15 352.96 517.86 C 351.13 517.84 349.30 518.00 347.49 518.23 L 348.01 517.10 Z" />
</g>
<g id="#eddb7aff">
<path fill="#eddb7a" opacity="1.00" d=" M 580.85 517.25 C 598.21 516.74 615.61 517.15 632.99 517.03 C 646.96 517.20 660.98 516.63 674.92 517.31 L 675.45 518.04 C 644.15 517.48 612.84 518.06 581.54 517.85 L 580.85 517.25 Z" />
</g>
<g id="#fdffc3ff">
<path fill="#fdffc3" opacity="1.00" d=" M 347.49 518.23 C 349.30 518.00 351.13 517.84 352.96 517.86 C 382.76 518.15 412.56 517.44 442.35 518.03 C 438.56 519.56 434.10 518.40 430.06 518.98 C 414.73 518.67 399.41 519.08 384.09 518.72 C 372.42 518.78 360.75 519.12 349.09 518.62 C 348.69 518.52 347.89 518.33 347.49 518.23 Z" />
</g>
<g id="#fcffc1ff">
<path fill="#fcffc1" opacity="1.00" d=" M 581.54 517.85 C 612.84 518.06 644.15 517.48 675.45 518.04 C 674.23 519.12 672.53 518.78 671.06 518.85 C 651.37 518.58 631.68 519.19 611.98 518.78 C 601.60 518.57 591.21 519.06 580.83 518.69 L 581.54 517.85 Z" />
</g>
<g id="#ffe473ff">
<path fill="#ffe473" opacity="1.00" d=" M 164.98 564.85 C 180.19 564.99 195.42 564.37 210.62 565.00 C 210.77 580.35 210.34 595.70 210.78 611.04 C 200.18 611.11 189.57 610.97 178.97 611.04 C 174.49 611.05 169.99 610.72 165.55 611.47 C 164.89 610.09 164.68 608.57 164.75 607.07 C 165.03 592.99 164.70 578.92 164.98 564.85 Z" />
</g>
<g id="#ffe373ff">
<path fill="#ffe373" opacity="1.00" d=" M 811.93 564.88 C 826.98 564.96 842.04 564.79 857.10 564.77 C 857.26 580.18 857.20 595.59 857.20 611.00 C 842.15 610.95 827.10 611.12 812.06 610.90 C 812.46 595.56 812.48 580.21 811.93 564.88 Z" />
</g>
<g id="#d7b24fff">
<path fill="#d7b24f" opacity="1.00" d=" M 858.16 564.59 L 858.92 565.34 C 859.04 581.15 859.02 596.96 858.94 612.76 L 858.12 612.95 L 858.10 612.08 C 857.92 596.25 858.00 580.42 858.16 564.59 Z" />
</g>
<g id="#8d3a0dff">
<path fill="#8d3a0d" opacity="1.00" d=" M 903.99 565.03 L 904.86 564.93 C 905.00 581.08 904.81 597.23 904.92 613.39 C 903.20 611.78 904.38 609.05 904.13 606.99 C 904.04 593.00 904.27 579.01 903.99 565.03 Z" />
</g>
<g id="#fcb639ff">
<path fill="#fcb639" opacity="1.00" d=" M 904.86 564.93 L 905.90 565.03 C 905.86 580.95 905.89 596.87 905.95 612.79 L 904.92 613.39 C 904.81 597.23 905.00 581.08 904.86 564.93 Z" />
</g>
<g id="#ee8221ff">
<path fill="#ee8221" opacity="1.00" d=" M 905.90 565.03 C 920.90 564.97 935.90 564.94 950.89 565.05 C 950.91 581.01 950.72 596.97 950.94 612.92 C 935.95 612.88 920.94 613.12 905.95 612.79 C 905.89 596.87 905.86 580.95 905.90 565.03 M 949.13 579.93 L 950.00 579.96 C 949.94 575.18 950.12 570.40 949.76 565.63 C 948.24 570.06 949.55 575.22 949.13 579.93 M 949.41 580.89 C 949.01 591.24 948.92 601.60 949.16 611.96 L 950.14 612.36 C 949.64 604.92 950.01 597.46 949.81 590.01 C 949.68 586.97 950.33 583.85 949.41 580.89 M 910.68 611.05 L 911.20 612.05 C 923.51 611.80 935.84 612.18 948.15 611.74 L 947.59 611.09 C 935.30 611.18 922.98 610.94 910.68 611.05 Z" />
</g>
<g id="#fca331ff">
<path fill="#fca331" opacity="1.00" d=" M 74.14 565.34 C 76.90 572.79 74.05 580.96 75.28 588.69 C 75.55 588.88 76.10 589.24 76.38 589.43 C 75.70 590.29 75.28 591.30 75.28 592.42 C 74.75 598.61 75.13 604.82 75.33 611.02 C 84.63 611.50 93.96 610.61 103.27 611.29 C 98.03 612.80 92.36 611.63 86.95 611.99 C 82.86 612.34 78.40 610.78 74.60 612.79 L 73.95 613.10 C 74.14 597.18 73.76 581.25 74.14 565.34 Z" />
</g>
<g id="#fca530ff">
<path fill="#fca530" opacity="1.00" d=" M 949.13 579.93 C 949.55 575.22 948.24 570.06 949.76 565.63 C 950.12 570.40 949.94 575.18 950.00 579.96 L 949.13 579.93 Z" />
</g>
<g id="#fbaa31ff">
<path fill="#fbaa31" opacity="1.00" d=" M 949.41 580.89 C 950.33 583.85 949.68 586.97 949.81 590.01 C 950.01 597.46 949.64 604.92 950.14 612.36 L 949.16 611.96 C 948.92 601.60 949.01 591.24 949.41 580.89 Z" />
</g>
<g id="#f9a032ff">
<path fill="#f9a032" opacity="1.00" d=" M 116.27 598.17 L 116.99 598.12 C 117.18 602.53 115.96 607.28 117.88 611.42 L 118.25 612.17 C 113.43 611.65 108.41 612.87 103.74 611.32 C 107.84 610.80 111.97 610.98 116.09 611.05 C 116.29 606.76 116.20 602.46 116.27 598.17 Z" />
</g>
<g id="#faa534ff">
<path fill="#faa534" opacity="1.00" d=" M 910.68 611.05 C 922.98 610.94 935.30 611.18 947.59 611.09 L 948.15 611.74 C 935.84 612.18 923.51 611.80 911.20 612.05 L 910.68 611.05 Z" />
</g>
<g id="#f5e36fff">
<path fill="#f5e36f" opacity="1.00" d=" M 812.09 612.66 C 827.08 611.72 842.16 612.72 857.18 612.09 L 858.10 612.08 L 858.12 612.95 C 842.78 612.83 827.40 613.36 812.09 612.66 Z" />
</g>
<g id="#6e521aff">
<path fill="#6e521a" opacity="1.00" d=" M 210.23 612.92 L 210.98 612.91 C 210.88 644.61 211.15 676.31 210.84 708.00 C 226.05 708.31 241.28 707.72 256.49 708.29 C 255.02 708.66 253.53 709.02 252.01 709.03 C 238.28 709.05 224.55 708.97 210.82 708.99 L 210.41 708.99 C 209.88 704.34 210.08 699.66 210.12 694.99 C 210.53 667.64 209.66 640.27 210.23 612.92 Z" />
</g>
<g id="#feffd7ff">
<path fill="#feffd7" opacity="1.00" d=" M 210.98 612.91 L 211.91 612.90 C 211.99 644.31 212.04 675.72 211.91 707.13 C 225.62 706.92 239.33 707.11 253.04 706.99 C 254.15 707.35 256.84 706.30 256.65 708.25 L 256.49 708.29 C 241.28 707.72 226.05 708.31 210.84 708.00 C 211.15 676.31 210.88 644.61 210.98 612.91 Z" />
</g>
<g id="#fefed2ff">
<path fill="#fefed2" opacity="1.00" d=" M 811.06 612.67 L 812.09 612.66 C 812.66 618.76 812.18 624.90 812.33 631.02 C 812.35 653.33 812.32 675.65 812.31 697.97 C 812.36 701.34 811.92 704.80 812.96 708.07 C 812.32 708.12 811.03 708.21 810.39 708.26 C 795.66 707.72 780.90 708.10 766.17 708.03 L 766.48 707.34 C 781.38 706.68 796.32 707.14 811.23 707.02 C 810.70 675.58 811.20 644.12 811.06 612.67 Z" />
</g>
<g id="#fffff2ff">
<path fill="#fffff2" opacity="1.00" d=" M 440.93 659.97 C 441.68 658.53 443.63 659.22 444.93 658.99 C 477.28 659.03 509.62 659.07 541.97 659.03 C 554.96 659.28 567.98 658.63 580.96 659.27 L 580.97 660.18 C 552.64 660.34 524.31 660.15 495.99 660.22 C 477.94 660.09 459.88 660.50 441.84 660.05 L 440.93 659.97 Z" />
</g>
<g id="#c5ac5eff">
<path fill="#c5ac5e" opacity="1.00" d=" M 440.93 659.97 L 441.84 660.05 C 441.88 673.70 441.90 687.34 441.92 700.99 C 441.88 703.38 442.15 705.86 441.38 708.18 C 441.17 695.80 441.48 683.42 441.29 671.04 C 441.19 667.35 441.65 663.62 440.93 659.97 Z" />
</g>
<g id="#8f7225ff">
<path fill="#8f7225" opacity="1.00" d=" M 766.17 708.03 C 780.90 708.10 795.66 707.72 810.39 708.26 C 804.94 709.16 799.42 708.75 793.93 708.83 C 784.93 708.79 775.93 708.88 766.94 708.69 C 767.13 724.79 766.88 740.89 767.07 757.00 L 766.47 756.95 L 766.20 756.43 L 765.98 755.52 C 766.21 739.89 766.21 724.24 765.96 708.61 L 766.17 708.03 Z" />
</g>
<g id="#fefec0ff">
<path fill="#fefec0" opacity="1.00" d=" M 256.68 708.43 C 258.24 709.86 257.89 712.05 258.00 713.95 C 257.94 728.04 258.15 742.14 257.85 756.24 C 272.53 755.23 287.28 756.70 301.95 755.64 C 301.96 755.97 301.96 756.62 301.97 756.95 C 289.31 757.06 276.65 756.95 264.00 757.00 C 261.37 756.97 258.65 757.36 256.13 756.44 C 256.95 740.46 255.96 724.41 256.68 708.43 Z" />
</g>
<g id="#feffc1ff">
<path fill="#feffc1" opacity="1.00" d=" M 765.02 712.93 C 764.95 711.41 765.42 709.98 765.96 708.61 C 766.21 724.24 766.21 739.89 765.98 755.52 C 764.98 752.45 765.16 749.21 765.12 746.05 C 764.88 735.01 765.06 723.96 765.02 712.93 Z" />
</g>
<g id="#866b2aff">
<path fill="#866b2a" opacity="1.00" d=" M 302.29 804.42 C 313.84 803.53 325.46 804.27 337.04 804.02 C 465.06 804.00 593.07 804.11 721.09 803.97 L 721.70 804.30 L 722.40 805.24 L 720.99 805.10 C 719.65 804.99 718.31 804.94 716.99 804.93 C 579.99 805.00 442.98 804.87 305.98 805.01 C 304.71 805.02 303.48 804.83 302.29 804.42 Z" />
</g>
</svg>
